<svg width="64" height="64" viewBox="0 0 64 64" fill="none" xmlns="http://www.w3.org/2000/svg">
<g opacity="0.5">
<path d="M41.3333 34.6667C38.1333 34.6667 33.1467 35.5734 29.3333 37.3334C25.52 35.5467 20.5333 34.6667 17.3333 34.6667C11.5467 34.6667 0 37.5467 0 43.3334V50.6667H58.6667V43.3334C58.6667 37.5467 47.12 34.6667 41.3333 34.6667ZM30.6667 46.6667H4V43.3334C4 41.8934 10.8267 38.6667 17.3333 38.6667C23.84 38.6667 30.6667 41.8934 30.6667 43.3334V46.6667ZM54.6667 46.6667H34.6667V43.3334C34.6667 42.1067 34.1333 41.04 33.28 40.08C35.6267 39.28 38.5067 38.6667 41.3333 38.6667C47.84 38.6667 54.6667 41.8934 54.6667 43.3334V46.6667ZM17.3333 32C22.48 32 26.6667 27.8134 26.6667 22.6667C26.6667 17.52 22.48 13.3334 17.3333 13.3334C12.1867 13.3334 8 17.52 8 22.6667C8 27.8134 12.1867 32 17.3333 32ZM17.3333 17.3334C20.2667 17.3334 22.6667 19.7334 22.6667 22.6667C22.6667 25.6 20.2667 28 17.3333 28C14.4 28 12 25.6 12 22.6667C12 19.7334 14.4 17.3334 17.3333 17.3334ZM41.3333 32C46.48 32 50.6667 27.8134 50.6667 22.6667C50.6667 17.52 46.48 13.3334 41.3333 13.3334C36.1867 13.3334 32 17.52 32 22.6667C32 27.8134 36.1867 32 41.3333 32ZM41.3333 17.3334C44.2667 17.3334 46.6667 19.7334 46.6667 22.6667C46.6667 25.6 44.2667 28 41.3333 28C38.4 28 36 25.6 36 22.6667C36 19.7334 38.4 17.3334 41.3333 17.3334Z" fill="#FDB100"/>
</g>
</svg>
